<?xml version="1.0" encoding="UTF-8"?>
<svg version="1.1" xmlns="http://www.w3.org/2000/svg" width="380" height="508">
<path d="M0 0 C5.99003056 -0.33025273 9.48818429 0.26101338 14.89453125 3.1484375 C15.51983734 3.47645859 16.14514343 3.80447968 16.78939819 4.1424408 C18.80563477 5.20468833 20.80878119 6.2893548 22.8125 7.375 C24.21119667 8.11763593 25.61069909 8.85875622 27.01098633 9.59838867 C29.77006079 11.05862223 32.52434861 12.527266 35.27441406 14.00439453 C39.0554281 16.03395686 42.85638508 18.02336333 46.66748047 19.99584961 C57.20859068 25.5033295 67.57213689 31.26467529 78 37 C78 57.79 78 78.58 78 100 C83.61 97.03 89.22 94.06 95 91 C98.90529207 89.32204192 102.70458082 87.74649084 106.6875 86.3125 C107.69949463 85.94294189 108.71148926 85.57338379 109.75415039 85.19262695 C131.87495266 77.27721261 155.41865925 71.62341476 179 71 C179.77311523 70.97953613 180.54623047 70.95907227 181.34277344 70.93798828 C222.3013898 70.01370768 258.97433454 79.60156475 295 99 C295.33 78.54 295.66 58.08 296 37 C301.28 34.36 306.56 31.72 312 29 C316.03016415 26.97219338 316.03016415 26.97219338 320.06030273 24.94433594 C331.44485658 19.2259553 342.90554843 13.68152048 354.421875 8.23388672 C356.79444481 7.0983784 359.14936675 5.93399627 361.5 4.75390625 C362.17426025 4.42165039 362.84852051 4.08939453 363.54321289 3.74707031 C365.28224554 2.88909674 367.01452516 2.01747079 368.74609375 1.14453125 C372.77237539 -0.27167586 375.75609513 -0.20780818 380 0 C380.48462177 8.5016992 379.12518826 15.75417969 376.8347168 23.91601562 C376.32988266 25.77923714 376.32988266 25.77923714 375.81484985 27.68009949 C374.89940612 31.05753705 373.96699492 34.43007113 373.03127646 37.80193901 C372.04966216 41.35076539 371.08405548 44.90394362 370.11665344 48.45666504 C368.28267311 55.18240417 366.43456656 61.90417458 364.58123475 68.62460375 C362.48292385 76.23601352 360.40035737 83.85170069 358.31916177 91.46780491 C354.75648314 104.50426548 351.18208885 117.53746043 347.59440613 130.56706238 C347.14647705 132.19403801 347.14647705 132.19403801 346.6894989 133.85388184 C346.40378714 134.88232208 346.11807537 135.91076233 345.82370567 136.97036743 C345.26849709 139.01245365 344.73527963 141.06063042 344.22281837 143.11386108 C343.85152589 144.5796611 343.85152589 144.5796611 343.47273254 146.07507324 C343.15741939 147.36701221 343.15741939 147.36701221 342.83573627 148.68505096 C341.35087719 152.79803877 338.42365464 155.21071745 335.125 157.9375 C333.77200047 159.12484624 332.41913844 160.31234918 331.06640625 161.5 C330.38594238 162.08265625 329.70547852 162.6653125 329.00439453 163.265625 C325.94877402 165.90961137 323.01117501 168.6756009 320.0625 171.4375 C319.07595037 172.3547306 318.08770746 173.27014384 317.09765625 174.18359375 C316.61321045 174.64717285 316.12876465 175.11075195 315.62963867 175.58837891 C314 177 314 177 311.91137695 178.31396484 C308.18196725 180.87019502 306.33521271 182.90659708 304.99291992 187.28491211 C304.32521911 191.81000469 304.09332635 196.18165406 304.0625 200.75 C304.04874329 201.61704559 304.03498657 202.48409119 304.02081299 203.37741089 C303.94905468 232.94742916 316.05360969 261.9727052 325.26262951 289.68549538 C328.30056979 298.83225954 331.28950367 307.99242079 334.14352798 317.1984539 C334.5890689 318.62874661 335.03973336 320.05745499 335.49590683 321.48439217 C336.12350423 323.45093866 336.73225838 325.42238959 337.33642578 327.39624023 C337.68343536 328.50700424 338.03044495 329.61776825 338.38796997 330.76219177 C339.361707 335.91353015 338.61026396 340.46279606 336.19677734 345.09814453 C335.82432892 345.82585052 335.45188049 346.55355652 335.06814575 347.30331421 C334.66151703 348.07204865 334.25488831 348.84078308 333.8359375 349.6328125 C333.41134247 350.45528473 332.98674744 351.27775696 332.54928589 352.12515259 C331.16727616 354.7967747 329.77112563 357.46073189 328.375 360.125 C327.42052097 361.96593846 326.46707708 363.80741398 325.51464844 365.64941406 C321.50166151 373.40077751 317.45398755 381.13398464 313.40725708 388.86776733 C312.00801891 391.54397638 310.61247176 394.22210199 309.21710205 396.90032959 C308.26943318 398.71283227 307.31368263 400.52089119 306.35693359 402.32861328 C305.79055176 403.41126465 305.22416992 404.49391602 304.640625 405.609375 C304.15110352 406.53717773 303.66158203 407.46498047 303.15722656 408.42089844 C301.38428333 412.3722428 300.58347835 414.83892682 302.06640625 418.97265625 C303.06531826 421.03568341 304.06532184 423.09818238 305.06640625 425.16015625 C306 428 306 428 305.29629517 430.00390625 C303.81519492 432.2845712 302.47643042 433.31463639 300.19287109 434.77734375 C299.41221283 435.28467041 298.63155457 435.79199707 297.82723999 436.31469727 C296.98448517 436.85022217 296.14173035 437.38574707 295.2734375 437.9375 C293.5024648 439.09093188 291.73163577 440.24458437 289.9609375 441.3984375 C287.16116233 443.20681041 284.35853358 445.01055788 281.55273438 446.80957031 C278.84765777 448.54881894 276.15394817 450.3046478 273.4609375 452.0625 C272.61413422 452.5980249 271.76733093 453.1335498 270.89486694 453.68530273 C270.120513 454.19262939 269.34615906 454.69995605 268.54833984 455.22265625 C267.86154144 455.66359619 267.17474304 456.10453613 266.46713257 456.55883789 C265.74090195 457.27221313 265.74090195 457.27221313 265 458 C265 461.50935186 265.37542727 464.56484998 266 468 C263.4606203 469.42205263 260.92123658 470.84409806 258.38183594 472.26611328 C256.13893101 473.52217964 253.89609421 474.77836767 251.65332031 476.03466797 C245.94104323 479.23429945 240.2278084 482.43218189 234.51171875 485.625 C233.47273437 486.20604492 232.43375 486.78708984 231.36328125 487.38574219 C229.28787528 488.54518322 227.21104941 489.70208628 225.1328125 490.85644531 C220.07502744 493.67467384 215.0632984 496.54284112 210.11328125 499.546875 C209.17645508 500.10745605 208.23962891 500.66803711 207.27441406 501.24560547 C205.52952924 502.29398153 203.79475453 503.35947179 202.07324219 504.44580078 C196.36014883 507.8551519 191.62561038 509.49800464 185 508 C180.02415334 505.96624665 175.41259102 503.39990884 170.75 500.75 C169.41450737 500.01136141 168.07790311 499.27472939 166.74023438 498.54003906 C164.06351046 497.06609459 161.39328732 495.58137987 158.72851562 494.0859375 C154.55885458 491.74765073 150.35938846 489.46601568 146.15576172 487.18945312 C143.5347731 485.76884742 140.91890828 484.33926678 138.3046875 482.90625 C132.41628887 479.67863399 126.52068946 476.46427356 120.625 473.25 C118.76299707 472.23441857 116.90101556 471.21879786 115.0390625 470.203125 C113.70617187 469.47609375 112.37328125 468.7490625 111 468 C111.66 464.7 112.32 461.4 113 458 C111.98164062 457.28457031 110.96328125 456.56914062 109.9140625 455.83203125 C101.1671394 449.67725286 92.4604819 443.47105569 83.80322266 437.19067383 C83.0869873 436.67142334 82.37075195 436.15217285 81.6328125 435.6171875 C80.68752686 434.93052002 80.68752686 434.93052002 79.72314453 434.22998047 C78.17073682 433.12187193 76.58698718 432.05799145 75 431 C75.14288854 429.29141784 75.28946089 427.5831436 75.4375 425.875 C75.51871094 424.92367188 75.59992188 423.97234375 75.68359375 422.9921875 C76 420 76 420 76.7722168 417.37597656 C77.10281041 412.47624614 75.17286115 409.28139598 72.9609375 404.9921875 C72.52808945 404.12103806 72.09524139 403.24988861 71.64927673 402.3523407 C70.23846991 399.51934083 68.80665888 396.69751032 67.375 393.875 C65.91813031 390.95982227 64.46708032 388.04179827 63.01649475 385.12348938 C62.04992456 383.17949667 61.08161176 381.23636942 60.11155701 379.29411316 C56.03236364 371.115625 52.12616166 362.86758281 48.3125 354.5625 C47.79155762 353.4286084 47.27061523 352.2947168 46.73388672 351.12646484 C45.84942789 349.19933906 44.96679707 347.27137164 44.0871582 345.34204102 C43.05618676 343.04311617 43.05618676 343.04311617 41.92526245 341.0827179 C38.51688197 333.41062981 44.23734915 320.52504687 46.26171875 312.6484375 C46.69482657 310.94532917 47.12741853 309.24208958 47.55952454 307.53872681 C48.69770045 303.05818736 49.84319918 298.57955131 50.99017334 294.10125732 C51.90906896 290.50875747 52.82303573 286.91501354 53.7366066 283.3211565 C54.62830968 279.81363737 55.52158692 276.3065201 56.41503143 272.7994442 C56.85459154 271.07337296 57.29378511 269.34720834 57.73261261 267.6209507 C61.74994135 251.8228307 61.74994135 251.8228307 63.89941406 244.10229492 C67.35484533 231.66483406 69.93394877 219.50241845 70.375 206.5625 C70.40991547 205.62376038 70.44483093 204.68502075 70.48080444 203.71783447 C70.71442112 190.51131798 68.14361346 182.09334673 58.94317627 172.50337219 C55.39878429 169.03215117 51.69206263 165.82835819 47.82373047 162.72485352 C47.09795303 162.13016769 46.3721756 161.53548187 45.62440491 160.92277527 C44.26649588 159.83457986 42.87509593 158.78601955 41.44480896 157.7948761 C34.55039271 152.42004193 33.45262474 144.54450206 31.5701313 136.43354797 C30.84723853 133.34795306 30.04930354 130.28445842 29.25024605 127.21788311 C28.2343389 123.3032518 27.25521988 119.37935734 26.26953125 115.45703125 C25.83001661 113.71525409 25.39028836 111.97353081 24.95036316 110.2318573 C23.79999629 105.67558064 22.65203268 101.11870233 21.50476074 96.56164551 C19.92033221 90.26947217 18.33318481 83.97798508 16.74508667 77.68673706 C15.84563133 74.12303024 14.94906471 70.55861373 14.05447388 66.99368286 C11.79310687 57.9969779 9.48456868 49.0158569 7.09521484 40.05224609 C6.39565952 37.40604263 5.69721748 34.75954791 4.99915123 32.11295128 C4.55644995 30.44774745 4.10847699 28.78393429 3.65470314 27.12171364 C1.14657732 17.9331722 -0.72928164 9.62866967 0 0 Z M10 12 C11.58213237 22.11544388 14.16467492 31.96548672 16.69140625 41.875 C17.16053717 43.72591566 17.6293568 45.57691023 18.09788513 47.42797852 C19.33232114 52.30119638 20.57126466 57.17325748 21.81109619 62.04510498 C23.28183781 67.8287955 24.74647461 73.61403566 26.21170616 79.39912415 C27.41058364 84.12965351 28.61370814 88.85902883 29.82583618 93.58618164 C31.8924509 101.65234154 33.94913829 109.7179268 35.87617207 117.81877136 C36.64907021 121.06182197 37.43862488 124.30070632 38.22981071 127.53933716 C38.58871129 129.02936498 38.93927016 130.52143231 39.28055 132.01559448 C41.23958582 140.58501876 43.35337323 146.95681831 50 153 C50.80228027 153.84498047 51.60456055 154.68996094 52.43115234 155.56054688 C53.14223145 156.27275391 53.85331055 156.98496094 54.5859375 157.71875 C55.37097656 158.50507813 56.15601563 159.29140625 56.96484375 160.1015625 C57.76019531 160.89304688 58.55554687 161.68453125 59.375 162.5 C60.19355469 163.32242188 61.01210938 164.14484375 61.85546875 164.9921875 C62.63277344 165.76820313 63.41007812 166.54421875 64.2109375 167.34375 C64.91524902 168.04693359 65.61956055 168.75011719 66.34521484 169.47460938 C67.74744743 171.11296255 67.74744743 171.11296255 69 171 C69 128.43 69 85.86 69 42 C58.11 36.39 47.22 30.78 36 25 C17.84055118 15.51673228 17.84055118 15.51673228 14.140625 13.2421875 C12.12418204 11.83269765 12.12418204 11.83269765 10 12 Z M368 12 C360.51442522 15.60989472 353.03005604 19.22227425 345.54708862 22.83757019 C341.83315947 24.63184148 338.11884341 26.42530412 334.40380859 28.21728516 C330.59111963 30.05646737 326.77946468 31.89777723 322.96847534 33.74047852 C321.48830184 34.45573451 320.00777111 35.17025174 318.52688599 35.8840332 C316.4492733 36.88559604 314.37293176 37.88974814 312.296875 38.89453125 C311.67217819 39.19494827 311.04748138 39.4953653 310.40385437 39.80488586 C307.50323828 41.10366704 307.50323828 41.10366704 305 43 C304.90385867 44.67024669 304.87812278 46.34458276 304.87974548 48.01759338 C304.87837082 49.10439392 304.87699615 50.19119446 304.87557983 51.31092834 C304.87917511 52.51357834 304.88277039 53.71622833 304.88647461 54.95532227 C304.88632858 56.21367889 304.88618256 57.47203552 304.8860321 58.76852417 C304.88574415 62.22911253 304.89164051 65.68966652 304.89860606 69.15024686 C304.90483997 72.76308091 304.90544343 76.37591567 304.90663147 79.98875427 C304.90974468 86.83463508 304.91795792 93.6805 304.92798096 100.5263738 C304.93914243 108.31826589 304.94465263 116.11015873 304.94967639 123.90205681 C304.96014054 139.93471386 304.97773977 155.9673549 305 172 C306.09961937 171.062447 307.19851624 170.12404659 308.29711914 169.18530273 C308.90914688 168.66282455 309.52117462 168.14034637 310.15174866 167.60203552 C312.97525041 165.15466811 315.70673654 162.61232943 318.4375 160.0625 C319.49765964 159.07310504 320.55887189 158.08483686 321.62109375 157.09765625 C322.38459892 156.37482452 322.38459892 156.37482452 323.16352844 155.63739014 C325 154 325 154 326.93632507 152.60858154 C333.54799039 147.64592347 335.12250723 142.23781276 337.0859375 134.41796875 C337.42579178 133.16282471 337.76564606 131.90768066 338.11579895 130.61450195 C339.04210269 127.19242234 339.93365633 123.76215906 340.81896591 120.32928085 C341.75418095 116.72693758 342.72063063 113.13300686 343.68481445 109.53833008 C344.8915365 105.03120719 346.09455022 100.52319835 347.28321838 96.01127625 C349.96992144 85.81493578 352.73381506 75.6425993 355.55970764 65.48396873 C356.20127607 63.17694512 356.84123944 60.86948281 357.48059082 58.56184387 C357.68837284 57.81188739 357.89615486 57.0619309 358.11023331 56.28924847 C358.5247675 54.79283948 358.93928537 53.29642597 359.35378647 51.80000782 C360.36975299 48.13344659 361.38789279 44.46751774 362.4105835 40.80282593 C363.3709617 37.35880289 364.32155149 33.912218 365.26492882 30.46350098 C365.77938672 28.5923679 366.30384428 26.72399323 366.8285675 24.85571289 C367.13159286 23.74212402 367.43461823 22.62853516 367.74682617 21.48120117 C368.01452316 20.51365402 368.28222015 19.54610687 368.55802917 18.54924011 C369.00724985 15.95818363 368.85754418 14.45764773 368 12 Z M98.5625 99.4375 C97.76996826 99.78466064 96.97743652 100.13182129 96.16088867 100.48950195 C94.62672097 101.18908754 93.11061307 101.93008576 91.61853027 102.71543884 C89 104 89 104 86.17475891 104.89117432 C82.41447709 106.45506581 80.54495905 107.77787717 78 111 C75.73214604 118.98128509 76.45372208 127.77743779 76.5390625 135.98828125 C76.53164501 138.49107502 76.52096295 140.99386104 76.50717163 143.49662781 C76.49095636 148.74682195 76.51343216 153.99547223 76.56591797 159.24536133 C76.63198506 165.92978309 76.59274644 172.60849592 76.52662086 179.29305744 C76.48656064 184.46774536 76.49966789 189.64130554 76.52802658 194.8160305 C76.53529813 197.27685326 76.52659568 199.73778282 76.5007515 202.19848061 C76.36458639 218.82322526 78.6410345 229.76961491 89 243 C91.5156745 240.4843255 92.69247882 237.61021643 94.1875 234.4375 C97.15805987 228.34073132 100.4723258 223.0899344 105 218 C105.58136719 217.31421875 106.16273437 216.6284375 106.76171875 215.921875 C114.79842687 207.09328998 125.74614451 201.48080712 137.62109375 200.7890625 C156.32445285 200.15577609 171.74720901 206.9955896 186.66796875 217.9453125 C188.95631897 219.26414597 188.95631897 219.26414597 191.38671875 218.44921875 C194.57487298 216.68119899 197.60379586 214.72166894 200.625 212.6875 C214.31728241 203.73120385 228.39646792 198.02840415 245 201 C261.02765819 204.68173166 272.25533841 216.87635329 280.75 230.25 C281.47419791 231.42172696 282.19816522 232.59359649 282.921875 233.765625 C284.79507874 236.68106241 286.78176032 239.34210921 289 242 C289.598125 240.845 290.19625 239.69 290.8125 238.5 C291.14894531 237.8503125 291.48539063 237.200625 291.83203125 236.53125 C295.3625334 228.87986072 296.45623453 223.03123625 296.48339844 214.63037109 C296.49829315 213.51718002 296.51318787 212.40398895 296.52853394 211.25706482 C296.57214729 207.59579818 296.5927546 203.93492055 296.609375 200.2734375 C296.62664152 197.7209167 296.64391456 195.16839595 296.66119385 192.61587524 C296.68863535 187.95589644 296.70757106 183.29603347 296.7166841 178.63599432 C296.73015068 171.78975513 296.78294425 164.94530564 296.86968589 158.09961069 C296.9424094 152.15264195 296.96551863 146.20611841 296.97071075 140.25868607 C296.97979159 137.73482096 297.00388253 135.21096352 297.0432663 132.68738937 C297.09440963 129.16048512 297.08882997 125.63796377 297.06933594 122.11083984 C297.09698029 121.06964493 297.12462463 120.02845001 297.15310669 118.95570374 C297.08687377 113.44248694 297.08687377 113.44248694 294.06139374 109.05699539 C291.76528276 107.49891143 289.491021 106.21753005 287 105 C285.70390553 104.29262145 284.40822916 103.58447531 283.11328125 102.875 C281.8502797 102.24210482 280.58324314 101.61720426 279.3125 101 C278.62244873 100.66242676 277.93239746 100.32485352 277.22143555 99.97705078 C275.15261678 98.97385765 273.07757181 97.9849154 271 97 C269.8759375 96.46117188 268.751875 95.92234375 267.59375 95.3671875 C214.58992541 71.26306727 150.87492503 76.36093506 98.5625 99.4375 Z M110.16796875 224.3828125 C104.0690209 231.74550629 95.47538448 243.06924014 96.23706055 253.13183594 C97.12268705 257.62203317 98.70258336 261.22191531 100.7109375 265.3046875 C101.0797403 266.06927277 101.44854309 266.83385803 101.82852173 267.62161255 C102.60550491 269.22565457 103.38735891 270.82734547 104.17382812 272.42675781 C105.37828339 274.88169225 106.56103159 277.34628567 107.7421875 279.8125 C108.50132739 281.37301759 109.2617009 282.9329358 110.0234375 284.4921875 C110.37667084 285.23064911 110.72990417 285.96911072 111.09384155 286.72994995 C111.98646984 288.52649346 112.98532476 290.26945443 114 292 C117.74794374 293.24931458 119.11893732 292.2462601 122.54524231 290.57409668 C123.29085922 290.19773071 124.03647614 289.82136475 124.8046875 289.43359375 C125.58829147 289.04796265 126.37189545 288.66233154 127.179245 288.26501465 C129.74899277 286.99805587 132.31180539 285.71765686 134.875 284.4375 C136.63999556 283.56537759 138.40554302 282.69437126 140.17163086 281.82446289 C143.74095149 280.06540917 147.30811655 278.30210509 150.87353516 276.53515625 C157.47138638 273.26838331 164.08735573 270.03958928 170.71466064 266.83303833 C172.5242603 265.95603252 174.33125295 265.07365391 176.13818359 264.19116211 C177.22824707 263.66272705 178.31831055 263.13429199 179.44140625 262.58984375 C180.37670166 262.13472412 181.31199707 261.67960449 182.27563477 261.21069336 C190.05448724 257.75381287 190.05448724 257.75381287 193.33569336 258.6081543 C194.07956299 259.00945557 194.82343262 259.41075684 195.58984375 259.82421875 C196.87121216 260.49300049 196.87121216 260.49300049 198.1784668 261.17529297 C199.08894775 261.67432129 199.99942871 262.17334961 200.9375 262.6875 C202.92078919 263.72733404 204.90519931 264.76503242 206.890625 265.80078125 C207.90576172 266.33654785 208.92089844 266.87231445 209.96679688 267.42431641 C214.65197466 269.8581652 219.41445672 272.11966093 224.1875 274.375 C229.96320949 277.11091526 235.73155133 279.85793007 241.46235657 282.6867981 C243.94782558 283.91336916 246.43672126 285.132905 248.9256897 286.35235596 C250.72230975 287.23637513 252.5139142 288.13056418 254.30541992 289.02490234 C255.3957251 289.55809082 256.48603027 290.0912793 257.609375 290.640625 C258.57842773 291.12047852 259.54748047 291.60033203 260.54589844 292.09472656 C263.08089032 293.32026531 263.08089032 293.32026531 266 292 C267.55123572 289.43390018 268.92902527 286.91396896 270.265625 284.23828125 C270.66328064 283.45486862 271.06093628 282.67145599 271.47064209 281.86430359 C272.30946523 280.20322037 273.14300741 278.53946147 273.97167969 276.87329102 C275.24094416 274.33064108 276.53720424 271.80308844 277.8359375 269.27539062 C278.64752324 267.65970193 279.45747326 266.04319034 280.265625 264.42578125 C280.65510315 263.67242996 281.0445813 262.91907867 281.44586182 262.14289856 C283.62227329 257.6936899 284.52892878 254.94204674 283 250 C275.25961969 233.48853599 263.32372237 216.97137705 246 210 C234.14211877 206.23252653 222.28767138 210.16064014 211.6875 215.5625 C204.3601371 219.72040241 197.701201 224.91757765 191 230 C187.78223467 228.55837741 185.0049901 226.64734977 182.12792969 224.62304688 C158.83085511 208.36476602 131.88900153 201.54689485 110.16796875 224.3828125 Z M75 237 C72.03260828 248.56104071 69.06807752 260.12281093 66.10714149 271.68550682 C64.73199885 277.0551816 63.3558924 282.42460543 61.97753906 287.79345703 C60.6460294 292.97999708 59.31710933 298.16719447 57.98994064 303.35484695 C57.4845428 305.32849102 56.97823092 307.30190127 56.47096634 309.27506638 C55.75764197 312.05042947 55.04764767 314.82662545 54.33837891 317.60302734 C54.13050247 318.40864105 53.92262604 319.21425476 53.70845032 320.04428101 C52.6677302 324.13250965 51.68935675 328.23326802 50.78913879 332.35479736 C50.61260175 333.15496906 50.4360647 333.95514076 50.25417805 334.77956009 C49.82963367 338.48828036 51.16060721 340.96138513 52.84765625 344.2109375 C53.17075775 344.85410416 53.49385925 345.49727081 53.82675171 346.15992737 C54.88062115 348.245323 55.97112358 350.30902792 57.0625 352.375 C57.80076917 353.82204033 58.5358415 355.27071581 59.26782227 356.72094727 C60.39004375 358.94342202 61.51413064 361.16468653 62.64860535 363.38093567 C66.44721319 370.80781043 69.96086323 378.35592316 73.4375 385.9375 C74.49849525 388.23837471 75.55967429 390.53916469 76.62109375 392.83984375 C77.0586499 393.79238037 77.49620605 394.74491699 77.94702148 395.72631836 C78.61116703 397.16039847 79.29322209 398.58644418 80 400 C80.66 400 81.32 400 82 400 C85.75486551 387.44245674 89.43610083 374.86580192 93.02739811 362.26043987 C94.69770851 356.40620236 96.39159034 350.56115717 98.14331055 344.73071289 C99.83626079 339.09253978 101.46207727 333.43869708 103.044981 327.76868629 C103.65696877 325.62006337 104.29198282 323.47784842 104.95128059 321.34326744 C108.43333071 310.01514539 110.59501935 301.47984298 105.05444336 290.52368164 C103.8357595 288.32243157 102.56665709 286.17363471 101.23480988 284.03911972 C99.30033433 280.84459778 97.74571041 277.48444385 96.15625 274.109375 C94.94684872 271.65157733 93.72363029 269.20074118 92.5 266.75 C92.18150085 266.11132996 91.86300171 265.47265991 91.53485107 264.81463623 C84.41820753 250.53504735 84.41820753 250.53504735 76 237 C75.67 237 75.34 237 75 237 Z M299 240 C298.57074219 241.14726562 298.14148438 242.29453125 297.69921875 243.4765625 C297.38911865 244.26973877 297.07901855 245.06291504 296.75952148 245.88012695 C296.01743034 247.78022505 295.29557301 249.6883036 294.59008789 251.60229492 C292.2734586 257.53123455 289.78133023 262.52140587 286.04954529 267.65060425 C276.73433078 280.49705913 269.41916649 293.13545358 271.86225605 309.49310493 C274.64255074 325.82613816 279.73163568 341.75346786 284.69726562 357.52783203 C287.52185255 366.50824184 289.7887785 375.60024607 291.95153809 384.75872803 C292.79881793 388.31766167 293.69586486 391.86371692 294.59375 395.41015625 C294.86896484 396.50465088 295.14417969 397.59914551 295.42773438 398.72680664 C295.61658203 399.47696045 295.80542969 400.22711426 296 401 C299.09215849 397.26412763 301.13419902 393.08077479 303.31640625 388.78125 C303.72969177 387.97454361 304.14297729 387.16783722 304.56878662 386.33668518 C305.90441334 383.72667015 307.23416611 381.11373349 308.5625 378.5 C309.01209076 377.61617645 309.46168152 376.73235291 309.92489624 375.82174683 C312.62147858 370.52086196 312.62147858 370.52086196 315.31489563 365.21836853 C317.69301227 360.53936853 320.10528304 355.88351815 322.578125 351.25390625 C323.29440063 349.89265625 323.29440063 349.89265625 324.02514648 348.50390625 C324.85005301 346.93950927 325.68948293 345.3826336 326.54711914 343.8359375 C326.89895264 343.15917969 327.25078613 342.48242188 327.61328125 341.78515625 C328.05861206 340.96349976 328.05861206 340.96349976 328.51293945 340.12524414 C329.98647525 333.69560551 327.16043869 326.53608592 325.296875 320.4140625 C324.88538208 319.03534973 324.88538208 319.03534973 324.46557617 317.62878418 C323.56705838 314.62547275 322.6590005 311.62515384 321.75 308.625 C321.12245158 306.54028301 320.49517629 304.45548379 319.86816406 302.37060547 C318.24583258 296.98527595 316.61347494 291.60303866 314.97802734 286.22167969 C314.01508012 283.04967481 313.05583715 279.87657256 312.09765625 276.703125 C310.60707946 271.76923474 309.10756531 266.83815539 307.60021973 261.90936279 C307.03397421 260.05497987 306.4700851 258.19987576 305.90856934 256.34405518 C305.12889671 253.77125161 304.33935973 251.20169372 303.546875 248.6328125 C303.31726074 247.86843872 303.08764648 247.10406494 302.85107422 246.31652832 C302.2924081 244.52509877 301.65389414 242.75890595 301 241 C300.34 240.67 299.68 240.34 299 240 Z M180.8984375 271.2109375 C180.22076324 271.53913483 179.54308899 271.86733215 178.84487915 272.20547485 C177.41593128 272.8995376 175.98882973 273.5974128 174.56347656 274.29882812 C172.38002842 275.3725273 170.19063813 276.43324797 168 277.4921875 C166.61161013 278.16851378 165.22357671 278.8455724 163.8359375 279.5234375 C163.18072113 279.84122162 162.52550476 280.15900574 161.85043335 280.48641968 C159.20362164 281.79400986 157.10290155 282.89709845 155 285 C154.4332856 287.22360666 153.9687544 289.47350915 153.55137634 291.72991943 C153.41969938 292.42976589 153.28802242 293.12961236 153.15235525 293.85066628 C152.71117525 296.20607976 152.28130798 298.56341843 151.85131836 300.92089844 C151.53805312 302.60614353 151.22409718 304.29126035 150.90950012 305.97625732 C150.0553941 310.56188248 149.21104685 315.1492573 148.36841273 319.73700237 C147.48557833 324.53453959 146.59394541 329.3304408 145.70326233 334.12652588 C144.0159107 343.22004788 142.33668211 352.31505066 140.66026074 361.41059327 C138.75619354 371.73881537 136.84254973 382.06525575 134.92833507 392.39160109 C132.10721194 407.61235275 129.28944927 422.83372895 126.48136711 438.0568924 C126.17718476 439.70566439 125.87283422 441.35440536 125.56830215 443.00311279 C125.15223149 445.25602894 124.73683513 447.50906835 124.32164001 449.762146 C124.08918044 451.02240475 123.85672087 452.2826635 123.61721706 453.58111191 C123.05112516 456.71680757 122.51517294 459.8555821 122 463 C134.3879449 470.11445235 146.83066997 477.0693294 159.54296875 483.58959961 C164.31340653 486.04412764 169.02771892 488.55715463 173.6796875 491.23046875 C174.58630127 491.74786621 175.49291504 492.26526367 176.42700195 492.79833984 C178.13682913 493.78067872 179.83907806 494.77637391 181.53198242 495.78759766 C182.29615479 496.22507324 183.06032715 496.66254883 183.84765625 497.11328125 C184.50773682 497.50298096 185.16781738 497.89268066 185.84790039 498.29418945 C189.76428251 499.57862062 192.99617779 498.4589299 196.64282227 496.79174805 C197.52510498 496.28683838 198.4073877 495.78192871 199.31640625 495.26171875 C200.31760498 494.69469238 201.31880371 494.12766602 202.3503418 493.54345703 C203.410354 492.93099121 204.47036621 492.31852539 205.5625 491.6875 C206.6656958 491.05956543 207.7688916 490.43163086 208.90551758 489.78466797 C212.27505001 487.86454513 215.6376554 485.93267448 219 484 C220.93954125 482.89354392 222.87961256 481.78801626 224.8203125 480.68359375 C228.31128388 478.69655994 231.79628857 476.69965921 235.27734375 474.6953125 C238.29159606 472.96396806 241.3213146 471.27073306 244.37890625 469.6171875 C245.03930908 469.25544434 245.69971191 468.89370117 246.38012695 468.52099609 C248.10777206 467.57765991 249.84264713 466.64759731 251.578125 465.71875 C254.05612635 464.27888502 254.05612635 464.27888502 254.71528625 462.31170654 C255.10733421 459.12850994 254.55987376 456.44995262 253.97729492 453.29394531 C253.79034152 452.25637211 253.79034152 452.25637211 253.59961128 451.19783783 C253.3210505 449.65505697 253.03884537 448.11293106 252.75359535 446.57137299 C251.92531469 442.08811242 251.12736941 437.59940692 250.32568359 433.11132812 C250.14487527 432.10261532 249.96406694 431.09390251 249.77777958 430.05462265 C247.60699019 417.89287497 245.57471168 405.70781001 243.53336656 393.52384424 C242.0392049 384.60825493 240.52985674 375.69523344 239.02087998 366.78214169 C237.58633453 358.3080517 236.15738584 349.83309879 234.74389648 341.35546875 C233.60109654 334.50156828 232.44701044 327.64967897 231.2794196 320.79995656 C230.66736838 317.20683276 230.06097028 313.61296731 229.46846962 310.01656342 C228.81451664 306.04799205 228.13558478 302.08409575 227.4543457 298.12011719 C227.26465714 296.94434113 227.07496857 295.76856506 226.87953186 294.55715942 C226.69062378 293.48197052 226.5017157 292.40678162 226.30708313 291.29901123 C226.15025212 290.36648907 225.99342112 289.4339669 225.83183765 288.47318649 C224.41143047 284.25008858 221.72441166 282.41272462 217.94726562 280.26074219 C216.77873047 279.69516602 215.61019531 279.12958984 214.40625 278.546875 C213.77771118 278.24179016 213.14917236 277.93670532 212.50158691 277.62237549 C211.17897934 276.98307548 209.8543474 276.34794843 208.52783203 275.71679688 C206.50076331 274.75036392 204.48265474 273.76684097 202.46484375 272.78125 C201.17497891 272.16041897 199.88463006 271.54059233 198.59375 270.921875 C197.42521484 270.36081055 196.25667969 269.79974609 195.05273438 269.22167969 C189.44878588 266.97902467 185.95357752 268.71249011 180.8984375 271.2109375 Z M234 289 C237.57482199 311.53222447 241.33952206 334.03113754 245.1796875 356.51953125 C245.29432374 357.19085256 245.40895998 357.86217387 245.52707005 358.55383825 C246.94433597 366.85191437 248.36427913 375.14953147 249.78518414 383.44698513 C251.012694 390.61549032 252.23832715 397.78431605 253.46385169 404.95316088 C255.97390799 419.63578187 258.48616703 434.31802511 261 449 C268.6201059 444.1716362 276.16501457 439.2600882 283.625 434.1875 C284.61628906 433.52041016 285.60757813 432.85332031 286.62890625 432.16601562 C288.03849609 431.20791992 288.03849609 431.20791992 289.4765625 430.23046875 C290.32299316 429.65707764 291.16942383 429.08368652 292.04150391 428.49291992 C294.11283331 427.14117721 294.11283331 427.14117721 295 425 C294.38478263 423.10486671 293.68020964 421.23873427 292.9440918 419.38720703 C288.95708003 408.80505007 286.55617895 397.77591056 283.89453125 386.8046875 C283.32431933 384.47996267 282.75331671 382.15543165 282.18156433 379.83108521 C280.68846275 373.75482441 279.20326987 367.67666332 277.72064209 361.59783936 C275.33897599 351.83443295 272.94960777 342.07293322 270.55179405 332.31348038 C269.71777216 328.91100608 268.88989185 325.50707741 268.06245422 322.10299683 C267.55335849 320.02547232 267.04402791 317.94800534 266.53442383 315.87060547 C266.3063504 314.92515366 266.07827698 313.97970184 265.84329224 313.00559998 C265.52185493 311.70247108 265.52185493 311.70247108 265.19392395 310.37301636 C265.01052869 309.62058088 264.82713343 308.86814541 264.63818073 308.09290886 C263.49428579 304.34151411 262.72109993 302.44167943 259.31030273 300.35253906 C257.63883179 299.5670166 257.63883179 299.5670166 255.93359375 298.765625 C255.33950211 298.48273621 254.74541046 298.19984741 254.13331604 297.90838623 C252.23998197 297.01055269 250.33898421 296.13041916 248.4375 295.25 C247.15377922 294.64302069 245.87056936 294.03495954 244.58789062 293.42578125 C239.44771232 290.46866256 239.44771232 290.46866256 234 289 Z M130.5625 295.5625 C129.40427734 296.07619141 128.24605469 296.58988281 127.05273438 297.11914062 C125.94349609 297.63798828 124.83425781 298.15683594 123.69140625 298.69140625 C122.16302124 299.39052124 122.16302124 299.39052124 120.60375977 300.10375977 C114.93893161 304.22928441 113.7870828 312.86686287 112.02905273 319.35058594 C111.74897369 320.36781738 111.46889465 321.38504883 111.18032837 322.43310547 C110.25970092 325.78216685 109.3464228 329.13318039 108.43359375 332.484375 C107.79279074 334.8246482 107.15167776 337.16483655 106.51026917 339.50494385 C105.16805213 344.40638202 103.82944665 349.30878824 102.4934082 354.21191406 C100.78637107 360.47551785 99.07064877 366.73670247 97.35221767 372.99718857 C96.02674333 377.82972102 94.70580578 382.66348466 93.38621712 387.49762726 C92.75567313 389.80551503 92.12376923 392.11303172 91.49044609 394.42015839 C90.60290071 397.65615465 89.72146674 400.89375748 88.84155273 404.13183594 C88.582285 405.07246887 88.32301727 406.01310181 88.05589294 406.98223877 C86.35581885 413.27206092 85.07178708 419.57386139 84 426 C94.25603193 433.44854816 104.53611099 440.84536211 115 448 C117.58347068 445.41652932 117.63505121 443.6870304 118.30349731 440.10528564 C118.54184296 438.84908417 118.7801886 437.59288269 119.02575684 436.2986145 C119.28311262 434.89864884 119.5403094 433.49865394 119.79736328 432.09863281 C120.07285706 430.63013527 120.34902692 429.16176441 120.62582397 427.69351196 C121.37676284 423.6988213 122.1177884 419.70234931 122.85680246 415.70543766 C123.63123052 411.52459804 124.4136968 407.34526253 125.19503784 403.16571045 C126.50675696 396.14208316 127.81217063 389.1173062 129.11376953 382.09179688 C130.61796441 373.97312432 132.13150743 365.85623837 133.65024006 357.74027371 C135.11083786 349.9340218 136.5652895 342.12663736 138.01678085 334.31868744 C138.63448785 330.99631072 139.25424666 327.67432653 139.87564468 324.35263824 C140.60787235 320.43676548 141.3346766 316.5199234 142.05734634 312.60227585 C142.3231565 311.1660448 142.59079202 309.73015018 142.86040497 308.29462814 C143.22877399 306.33156933 143.58979553 304.36713603 143.95046997 302.40264893 C144.15435396 301.30462574 144.35823795 300.20660255 144.56830025 299.07530594 C144.99910102 296.00640405 145.07807614 293.09449041 145 290 C140.08784475 290 134.93880988 293.52604743 130.5625 295.5625 Z " fill="#FFFFFF" transform="translate(0,0)"/>
<path d="M0 0 C0.87411026 -0.0066568 1.74822052 -0.0133136 2.64881897 -0.02017212 C4.49722184 -0.03029538 6.34566123 -0.03498924 8.1940918 -0.03466797 C11.02128312 -0.03904104 13.84691307 -0.07536252 16.67382812 -0.11328125 C18.47004674 -0.11914951 20.26627278 -0.12311884 22.0625 -0.125 C22.90739487 -0.13937103 23.75228973 -0.15374207 24.62278748 -0.16854858 C30.47298025 -0.12303049 30.47298025 -0.12303049 33.60375977 2.17724609 C36.38483455 6.19591961 36.35849391 9.51258196 35.69140625 14.17578125 C34.21471283 21.1461258 32.00223862 26.16467571 27.09765625 31.3359375 C26.32615234 32.16738281 26.32615234 32.16738281 25.5390625 33.015625 C18.20588022 40.08502375 9.57455928 41.6801298 -0.27734375 41.7734375 C-1.05053955 41.78358887 -1.82373535 41.79374023 -2.62036133 41.80419922 C-7.17861861 41.73374395 -10.21092068 41.27386784 -13.90234375 38.3359375 C-17.1931641 33.39970697 -16.27129227 27.82377847 -16.27734375 22.0234375 C-16.30183594 20.79947266 -16.32632813 19.57550781 -16.3515625 18.31445312 C-16.38834515 7.04057074 -16.38834515 7.04057074 -11.90234375 2.3359375 C-7.96944773 -0.28599318 -4.56706499 0.01200194 0 0 Z " fill="#FFFFFF" transform="translate(134.90234375,221.6640625)"/>
<path d="M0 0 C1.25554687 -0.00128906 2.51109375 -0.00257813 3.8046875 -0.00390625 C4.46178711 -0.00181152 5.11888672 0.0002832 5.79589844 0.00244141 C7.80411335 0.00779016 9.81210459 0.00249559 11.8203125 -0.00390625 C13.07585937 -0.00261719 14.33140625 -0.00132812 15.625 0 C16.78644531 0.00112793 17.94789063 0.00225586 19.14453125 0.00341797 C21.8125 0.1328125 21.8125 0.1328125 22.8125 1.1328125 C24.02596097 19.13579909 24.02596097 19.13579909 18.8125 26.1328125 C15.30177502 29.4763601 12.54213091 30.40556297 7.8125 30.6328125 C3.12809239 30.43557429 0.39388751 29.27744543 -3.1875 26.1328125 C-6.55548963 22.41641015 -7.31219884 18.98532351 -7.3203125 14.05859375 C-7.32160156 13.30900391 -7.32289063 12.55941406 -7.32421875 11.78710938 C-7.32035156 11.01431641 -7.31648437 10.24152344 -7.3125 9.4453125 C-7.31636719 8.66091797 -7.32023438 7.87652344 -7.32421875 7.06835938 C-7.31198663 -0.00792023 -6.9276646 0.00672775 0 0 Z " fill="#FFFFFF" transform="translate(182.1875,283.8671875)"/>
<path d="M0 0 C3.09632649 2.43753362 4.82300487 4.73450731 7 8 C7.33834017 12.19541805 7.43391951 14.91520123 5.875 18.8125 C2.79968119 22.40037194 -0.36457719 23.76150084 -5 24.4375 C-8.94665429 23.86194625 -10.96043437 22.56674431 -14 20 C-16.08387885 17.19978779 -17.03472869 15.31042923 -16.94140625 11.7890625 C-16.2575493 7.54491937 -15.23433832 5.28006287 -12.4375 1.9375 C-8.12942082 -0.49069008 -4.84051545 -1.13421672 0 0 Z " fill="#FFFFFF" transform="translate(243,222)"/>
</svg>
